<svg data-v-423bf9ae="" xmlns="http://www.w3.org/2000/svg" viewBox="0 0 617.7261746725171 180" class="iconAbove"><!----><!----><!----><g data-v-423bf9ae="" id="f231f1bb-6646-4c57-a167-ac5860616c04" fill="white" transform="matrix(4.803843162490988,0,0,4.803843162490988,-4.371490231463213,47.67896038784822)"><path d="M10.78 15.88L10.78 19.45L10.29 19.61L8.40 16.84L6.78 16.84L6.78 26.03L8.26 26.50L7.95 27.13L3.56 27.13L3.56 26.63L4.87 25.59L4.87 16.84L3.29 16.84L1.40 19.61L0.91 19.45L0.91 15.88L1.72 16.13L9.97 16.13L10.78 15.88ZM15.65 21.11Q15.36 21.11 15.04 21.27Q14.71 21.42 14.31 21.83L14.31 21.83L14.31 25.93L16.30 26.52L15.99 27.15L11.24 27.15L11.24 26.64L12.49 25.65L12.49 21.84L11.24 21.10L11.24 20.59L13.73 19.40L14.20 21.10L15.61 19.64Q15.93 19.53 16.37 19.53L16.37 19.53Q16.88 19.53 17.27 19.80Q17.65 20.06 17.85 20.55L17.85 20.55L16.84 21.81L16.24 21.81Q16.18 21.43 16.04 21.27Q15.90 21.11 15.65 21.11L15.65 21.11ZM26.24 26.50L25.93 27.13L23.16 27.13L23.16 25.91L21.57 27.16Q21.29 27.27 20.87 27.27L20.87 27.27Q19.64 27.27 19.10 26.66Q18.55 26.05 18.55 25.19L18.55 25.19Q18.55 24.68 18.90 24.19Q19.25 23.69 19.92 23.24L19.92 23.24L23.16 23.24L23.16 22.48Q23.16 20.85 21.41 20.85L21.41 20.85Q20.52 20.85 19.19 21.84L19.19 21.84L18.77 21.25L20.78 19.67Q21.42 19.53 22.18 19.53L22.18 19.53Q23.51 19.53 24.24 20.17Q24.98 20.82 24.98 22.04L24.98 22.04L24.98 26.01L26.24 26.50ZM21.38 25.94Q22.20 25.94 23.16 25.20L23.16 25.20L23.16 23.88L20.72 23.88Q20.55 24.09 20.48 24.30Q20.41 24.51 20.41 24.77L20.41 24.77Q20.41 25.26 20.68 25.60Q20.94 25.94 21.38 25.94L21.38 25.94ZM36.18 26.50L35.85 27.13L33.10 27.13L33.10 26.12L31.78 27.16Q31.33 27.27 30.72 27.27L30.72 27.27Q29.79 27.27 29.06 26.79Q28.32 26.31 27.91 25.48Q27.50 24.65 27.50 23.65L27.50 23.65Q27.50 22.55 28.16 21.61Q28.83 20.66 29.83 20.10Q30.84 19.53 31.78 19.53L31.78 19.53Q32.49 19.53 33.10 19.95L33.10 19.95L33.10 17.22L31.85 16.35L31.85 15.85L34.31 14.91L34.92 14.91L34.92 26.04L36.18 26.50ZM31.47 25.94Q31.89 25.94 32.27 25.83Q32.65 25.72 33.11 25.41L33.11 25.41L33.11 22.32Q33.03 21.64 32.47 21.22Q31.92 20.80 30.97 20.80L30.97 20.80Q29.46 20.80 29.46 22.97L29.46 22.97Q29.46 24.25 29.97 25.10Q30.49 25.94 31.46 25.94L31.46 25.94L31.47 25.94ZM44.59 25.23L42.18 27.15Q41.58 27.27 40.73 27.27L40.73 27.27Q39.79 27.27 39.04 26.79Q38.29 26.31 37.86 25.48Q37.44 24.65 37.44 23.65L37.44 23.65Q37.44 22.55 38.10 21.61Q38.77 20.66 39.77 20.10Q40.78 19.53 41.72 19.53L41.72 19.53Q43.08 19.53 43.83 20.59Q44.58 21.66 44.56 23.44L44.56 23.44L39.41 23.44Q39.51 24.56 40.05 25.26Q40.60 25.97 41.54 25.97L41.54 25.97Q42.46 25.97 44.17 24.65L44.17 24.65L44.59 25.23ZM40.92 20.80Q39.48 20.80 39.41 22.79L39.41 22.79L42.56 22.79Q42.43 22.08 42.30 21.69Q42.17 21.29 41.85 21.05Q41.52 20.80 40.91 20.80L40.91 20.80L40.92 20.80ZM61.73 16.63L60.37 17.68L56.48 26.68L54.84 27.40L50.76 17.57L49.36 16.76L49.67 16.13L54.12 16.13L54.12 16.63L52.77 17.63L56.07 25.62L59.50 17.64L57.11 16.76L57.41 16.13L61.73 16.13L61.73 16.63ZM66.79 26.50L66.47 27.13L62.47 27.13L62.47 26.63L63.71 25.63L63.71 21.71L62.47 20.86L62.47 20.36L64.93 19.40L65.53 19.40L65.53 26.04L66.79 26.50ZM64.57 15.20Q65.03 15.20 65.32 15.53Q65.62 15.86 65.62 16.34L65.62 16.34Q65.62 16.67 65.41 16.98Q65.20 17.28 64.88 17.45Q64.55 17.63 64.25 17.63L64.25 17.63Q63.80 17.63 63.50 17.30Q63.21 16.98 63.21 16.49L63.21 16.49Q63.21 16.16 63.42 15.86Q63.63 15.55 63.95 15.38Q64.27 15.20 64.57 15.20L64.57 15.20ZM72.38 25.56Q72.38 25.20 71.96 24.89Q71.54 24.57 70.67 24.11L70.67 24.11Q69.93 23.72 69.49 23.44Q69.05 23.16 68.73 22.79Q68.42 22.41 68.42 21.97L68.42 21.97Q68.42 21.46 68.85 20.89Q69.29 20.31 69.92 19.92Q70.56 19.53 71.09 19.53L71.09 19.53Q71.75 19.53 72.62 19.69Q73.49 19.85 73.88 20.05L73.88 20.05L73.88 22.25L73.28 22.25Q72.84 21.42 72.27 20.95Q71.69 20.48 71.08 20.48L71.08 20.48Q70.67 20.48 70.43 20.70Q70.18 20.92 70.18 21.24L70.18 21.24Q70.18 21.64 70.62 21.97Q71.05 22.29 71.96 22.78L71.96 22.78Q72.67 23.14 73.11 23.42Q73.54 23.69 73.85 24.05Q74.16 24.40 74.16 24.84L74.16 24.84Q74.16 25.35 73.70 25.92Q73.25 26.49 72.60 26.88Q71.95 27.27 71.40 27.27L71.40 27.27Q70.70 27.27 69.73 27.10Q68.75 26.94 68.35 26.75L68.35 26.75L68.35 24.54L68.95 24.54Q69.43 25.38 70.08 25.85Q70.74 26.32 71.41 26.32L71.41 26.32Q71.85 26.32 72.11 26.10Q72.38 25.87 72.38 25.56L72.38 25.56ZM84.46 26.50L84.14 27.13L81.38 27.13L81.38 25.72L79.65 27.16Q79.38 27.27 78.86 27.27L78.86 27.27Q77.88 27.27 77.31 26.69Q76.73 26.11 76.73 25.12L76.73 25.12L76.73 21.84L75.49 21.11L75.49 20.61L77.95 19.43L78.55 19.43L78.55 24.35Q78.55 25.10 78.79 25.40Q79.03 25.70 79.62 25.70L79.62 25.70Q80.02 25.70 80.43 25.55Q80.84 25.40 81.38 24.96L81.38 24.96L81.38 21.84L80.14 21.11L80.14 20.61L82.60 19.43L83.20 19.43L83.20 26.04L84.46 26.50ZM93.39 26.50L93.09 27.13L90.31 27.13L90.31 25.91L88.73 27.16Q88.45 27.27 88.03 27.27L88.03 27.27Q86.80 27.27 86.25 26.66Q85.71 26.05 85.71 25.19L85.71 25.19Q85.71 24.68 86.06 24.19Q86.41 23.69 87.08 23.24L87.08 23.24L90.31 23.24L90.31 22.48Q90.31 20.85 88.56 20.85L88.56 20.85Q87.68 20.85 86.35 21.84L86.35 21.84L85.93 21.25L87.93 19.67Q88.58 19.53 89.33 19.53L89.33 19.53Q90.66 19.53 91.40 20.17Q92.13 20.82 92.13 22.04L92.13 22.04L92.13 26.01L93.39 26.50ZM88.54 25.94Q89.36 25.94 90.31 25.20L90.31 25.20L90.31 23.88L87.88 23.88Q87.71 24.09 87.64 24.30Q87.57 24.51 87.57 24.77L87.57 24.77Q87.57 25.26 87.84 25.60Q88.10 25.94 88.54 25.94L88.54 25.94ZM98.50 26.52L98.18 27.15L94.18 27.15L94.18 26.64L95.42 25.65L95.42 17.22L94.18 16.35L94.18 15.85L96.64 14.91L97.24 14.91L97.24 26.04L98.50 26.52ZM104.01 26.50L103.68 27.13L99.68 27.13L99.68 26.63L100.93 25.63L100.93 21.71L99.68 20.86L99.68 20.36L102.14 19.40L102.75 19.40L102.75 26.04L104.01 26.50ZM101.78 15.20Q102.24 15.20 102.54 15.53Q102.83 15.86 102.83 16.34L102.83 16.34Q102.83 16.67 102.62 16.98Q102.41 17.28 102.09 17.45Q101.77 17.63 101.46 17.63L101.46 17.63Q101.01 17.63 100.72 17.30Q100.42 16.98 100.42 16.49L100.42 16.49Q100.42 16.16 100.63 15.86Q100.84 15.55 101.16 15.38Q101.49 15.20 101.78 15.20L101.78 15.20ZM107.52 25.31L110.87 25.31L111.47 24.15L111.96 24.30L111.96 27.38L111.12 27.13L105.41 27.13L105.41 26.53L110.04 21.49L106.62 21.49L106.06 22.53L105.57 22.36L105.57 19.42L106.41 19.67L112.13 19.67L112.13 20.27L107.52 25.31ZM121.20 25.23L118.79 27.15Q118.19 27.27 117.33 27.27L117.33 27.27Q116.40 27.27 115.65 26.79Q114.90 26.31 114.47 25.48Q114.04 24.65 114.04 23.65L114.04 23.65Q114.04 22.55 114.71 21.61Q115.37 20.66 116.38 20.10Q117.39 19.53 118.33 19.53L118.33 19.53Q119.69 19.53 120.44 20.59Q121.18 21.66 121.17 23.44L121.17 23.44L116.02 23.44Q116.12 24.56 116.66 25.26Q117.21 25.97 118.15 25.97L118.15 25.97Q119.07 25.97 120.78 24.65L120.78 24.65L121.20 25.23ZM117.53 20.80Q116.09 20.80 116.02 22.79L116.02 22.79L119.17 22.79Q119.04 22.08 118.91 21.69Q118.78 21.29 118.45 21.05Q118.13 20.80 117.52 20.80L117.52 20.80L117.53 20.80ZM127.30 21.11Q127.01 21.11 126.69 21.27Q126.36 21.42 125.96 21.83L125.96 21.83L125.96 25.93L127.95 26.52L127.64 27.15L122.89 27.15L122.89 26.64L124.14 25.65L124.14 21.84L122.89 21.10L122.89 20.59L125.38 19.40L125.85 21.10L127.26 19.64Q127.58 19.53 128.02 19.53L128.02 19.53Q128.53 19.53 128.92 19.80Q129.30 20.06 129.50 20.55L129.50 20.55L128.49 21.81L127.89 21.81Q127.83 21.43 127.69 21.27Q127.55 21.11 127.30 21.11L127.30 21.11Z"></path></g><!----><g data-v-423bf9ae="" id="182dc033-8f93-49c8-b62f-d2cf038b2f5c" transform="matrix(1.0868111504448785,0,0,1.0868111504448785,253.744749553976,-0.23894260335429607)" stroke="none" fill="white"><g clip-rule="evenodd"><path d="M12.983 10.59l17.018 88.223-5.872-59.049 29.021-1.892-.054-9.883L64.549 1 53.622 18.977z"></path><path d="M59.389 54.548l5.16-53.541-8.74 39.716-19.612 1.045 1.57 20.462-7.766 36.583 12.057-39.899z"></path><path d="M62.8 67.182l.549-10.453-15.979 3.755-.032 11.797-17.337 26.532 21.68-27.616zM65.711 62.394l14.841-4.731 1.509-12.532-15.899 2.095zM72.07 44.502l10.988-1.417 1.581-10.278-8.079-.373L64.549 1l8.43 30.967z"></path><path d="M87.413 31.294l1.256-9.506-9.544-2.694L64.549 1l14.483 22.437-.422 7z"></path></g></g><!----></svg>