<svg data-v-423bf9ae="" xmlns="http://www.w3.org/2000/svg" viewBox="0 0 3013.9288669116368 193" class="fontAboveSlogan"><!----><!----><!----><g data-v-423bf9ae="" id="60fd9428-78c9-451e-9b4f-0d37932596f9" fill="white" transform="matrix(9.607685591386847,0,0,9.607685591386847,885.8911506732619,-150.82927490307293)"><path d="M10.67 16.74L10.67 20.24L10.25 20.38L8.39 17.63L6.68 17.63L6.68 26.94L8.15 27.44L7.87 28L3.61 28L3.61 27.57L4.93 26.53L4.93 17.63L3.26 17.63L1.40 20.38L0.98 20.24L0.98 16.74L1.74 17.00L9.91 17.00L10.67 16.74ZM16.21 20.44Q16.67 20.44 17.02 20.69Q17.37 20.94 17.57 21.39L17.57 21.39L16.65 22.55L16.11 22.55Q16.06 22.20 15.91 22.06Q15.76 21.91 15.51 21.91L15.51 21.91Q15.20 21.91 14.86 22.07Q14.52 22.23 14.08 22.68L14.08 22.68L14.08 26.85L16.04 27.45L15.76 28.01L11.16 28.01L11.16 27.58L12.40 26.60L12.40 22.64L11.16 21.91L11.16 21.48L13.55 20.30L13.99 22.02L15.44 20.54Q15.74 20.43 16.21 20.43L16.21 20.43L16.21 20.44ZM25.86 27.44L25.58 28L22.92 28L22.92 26.78L21.34 28.03Q21.06 28.14 20.64 28.14L20.64 28.14Q19.43 28.14 18.89 27.54Q18.35 26.94 18.35 26.10L18.35 26.10Q18.35 25.59 18.72 25.10Q19.08 24.61 19.75 24.18L19.75 24.18L22.92 24.18L22.92 23.28Q22.92 22.37 22.43 21.99Q21.95 21.62 21.11 21.62L21.11 21.62Q20.24 21.62 18.98 22.67L18.98 22.67L18.56 22.13L20.58 20.54Q21.14 20.43 21.92 20.43L21.92 20.43Q23.20 20.43 23.90 21.05Q24.60 21.67 24.60 22.86L24.60 22.86L24.60 26.95L25.86 27.44ZM21.08 26.95Q21.94 26.95 22.92 26.17L22.92 26.17L22.92 24.75L20.44 24.75Q20.26 24.98 20.18 25.20Q20.10 25.42 20.10 25.69L20.10 25.69Q20.10 26.21 20.37 26.58Q20.64 26.95 21.08 26.95L21.08 26.95ZM35.71 27.44L35.43 28L32.77 28L32.77 26.99L31.47 28.03Q31.02 28.14 30.39 28.14L30.39 28.14Q29.47 28.14 28.73 27.66Q28 27.17 27.59 26.35Q27.17 25.52 27.17 24.53L27.17 24.53Q27.17 23.45 27.83 22.50Q28.49 21.56 29.48 20.99Q30.46 20.43 31.39 20.43L31.39 20.43Q32.16 20.43 32.79 20.86L32.79 20.86L32.79 17.98L31.54 17.11L31.54 16.67L33.94 15.78L34.47 15.78L34.47 26.95L35.71 27.44ZM31.11 26.95Q31.53 26.95 31.91 26.83Q32.30 26.71 32.77 26.38L32.77 26.38L32.77 23.18Q32.69 22.48 32.12 22.04Q31.56 21.60 30.58 21.60L30.58 21.60Q28.99 21.60 28.99 23.86L28.99 23.86Q28.99 25.17 29.54 26.06Q30.09 26.95 31.11 26.95L31.11 26.95ZM44.10 26.07L41.62 28.03Q41.06 28.14 40.28 28.14L40.28 28.14Q39.35 28.14 38.62 27.66Q37.88 27.17 37.47 26.35Q37.06 25.52 37.06 24.53L37.06 24.53Q37.06 23.45 37.72 22.50Q38.37 21.56 39.36 20.99Q40.35 20.43 41.27 20.43L41.27 20.43Q42.60 20.43 43.34 21.48Q44.07 22.53 44.07 24.25L44.07 24.25L38.89 24.25Q38.98 25.44 39.54 26.19Q40.11 26.95 41.09 26.95L41.09 26.95Q42 26.95 43.68 25.54L43.68 25.54L44.10 26.07ZM40.46 21.60Q38.95 21.60 38.88 23.67L38.88 23.67L42.15 23.67Q42.03 22.92 41.90 22.52Q41.76 22.12 41.43 21.86Q41.10 21.60 40.46 21.60L40.46 21.60ZM61.21 17.43L59.89 18.47L55.93 27.55L54.47 28.27L50.39 18.41L48.99 17.56L49.27 17.00L53.52 17.00L53.52 17.43L52.21 18.45L55.58 26.59L59.14 18.40L56.67 17.56L56.95 17.00L61.21 17.00L61.21 17.43ZM66.16 27.44L65.88 28L61.98 28L61.98 27.57L63.22 26.59L63.22 22.50L61.98 21.63L61.98 21.20L64.37 20.30L64.90 20.30L64.90 26.95L66.16 27.44ZM64.01 16.10Q64.43 16.10 64.70 16.41Q64.97 16.72 64.97 17.18L64.97 17.18Q64.97 17.50 64.78 17.79Q64.58 18.07 64.29 18.24Q63.99 18.41 63.71 18.41L63.71 18.41Q63.29 18.41 63.02 18.10Q62.75 17.79 62.75 17.33L62.75 17.33Q62.75 17.01 62.94 16.72Q63.14 16.44 63.43 16.27Q63.73 16.10 64.01 16.10L64.01 16.10ZM71.93 26.49Q71.93 26.10 71.50 25.77Q71.06 25.44 70.17 24.98L70.17 24.98Q69.44 24.60 68.99 24.32Q68.54 24.04 68.23 23.67Q67.91 23.30 67.91 22.86L67.91 22.86Q67.91 22.36 68.33 21.78Q68.75 21.21 69.37 20.82Q69.99 20.43 70.52 20.43L70.52 20.43Q71.16 20.43 72.01 20.59Q72.86 20.75 73.23 20.94L73.23 20.94L73.23 23.10L72.70 23.10Q72.25 22.23 71.67 21.75Q71.08 21.27 70.46 21.27L70.46 21.27Q70.03 21.27 69.76 21.50Q69.50 21.73 69.50 22.08L69.50 22.08Q69.50 22.51 69.95 22.86Q70.41 23.20 71.33 23.66L71.33 23.66Q72.04 24.02 72.48 24.29Q72.91 24.56 73.21 24.91Q73.51 25.27 73.51 25.70L73.51 25.70Q73.51 26.22 73.07 26.79Q72.63 27.36 72.00 27.75Q71.36 28.14 70.83 28.14L70.83 28.14Q70.14 28.14 69.20 27.98Q68.25 27.82 67.84 27.62L67.84 27.62L67.84 25.47L68.38 25.47Q68.87 26.33 69.54 26.82Q70.21 27.30 70.90 27.30L70.90 27.30Q71.36 27.30 71.65 27.06Q71.93 26.82 71.93 26.49L71.93 26.49ZM83.78 27.44L83.50 28L80.84 28L80.84 26.54L79.06 28.03Q78.76 28.14 78.29 28.14L78.29 28.14Q77.34 28.14 76.78 27.56Q76.22 26.98 76.22 25.98L76.22 25.98L76.22 22.64L74.97 21.91L74.97 21.48L77.36 20.30L77.90 20.30L77.90 25.28Q77.90 26.05 78.13 26.36Q78.37 26.67 78.99 26.67L78.99 26.67Q79.42 26.67 79.84 26.51Q80.26 26.35 80.84 25.87L80.84 25.87L80.84 22.64L79.59 21.91L79.59 21.48L81.98 20.30L82.52 20.30L82.52 26.95L83.78 27.44ZM92.61 27.44L92.33 28L89.67 28L89.67 26.78L88.09 28.03Q87.81 28.14 87.39 28.14L87.39 28.14Q86.18 28.14 85.65 27.54Q85.11 26.94 85.11 26.10L85.11 26.10Q85.11 25.59 85.47 25.10Q85.83 24.61 86.51 24.18L86.51 24.18L89.67 24.18L89.67 23.28Q89.67 22.37 89.19 21.99Q88.70 21.62 87.86 21.62L87.86 21.62Q87.00 21.62 85.74 22.67L85.74 22.67L85.32 22.13L87.33 20.54Q87.89 20.43 88.68 20.43L88.68 20.43Q89.95 20.43 90.65 21.05Q91.35 21.67 91.35 22.86L91.35 22.86L91.35 26.95L92.61 27.44ZM87.84 26.95Q88.69 26.95 89.67 26.17L89.67 26.17L89.67 24.75L87.19 24.75Q87.01 24.98 86.93 25.20Q86.86 25.42 86.86 25.69L86.86 25.69Q86.86 26.21 87.12 26.58Q87.39 26.95 87.84 26.95L87.84 26.95ZM97.64 27.44L97.36 28L93.45 28L93.45 27.57L94.70 26.59L94.70 17.98L93.45 17.11L93.45 16.67L95.84 15.78L96.38 15.78L96.38 26.95L97.64 27.44ZM103.08 27.44L102.80 28L98.90 28L98.90 27.57L100.14 26.59L100.14 22.50L98.90 21.63L98.90 21.20L101.29 20.30L101.82 20.30L101.82 26.95L103.08 27.44ZM100.93 16.10Q101.35 16.10 101.62 16.41Q101.89 16.72 101.89 17.18L101.89 17.18Q101.89 17.50 101.70 17.79Q101.50 18.07 101.21 18.24Q100.91 18.41 100.63 18.41L100.63 18.41Q100.21 18.41 99.94 18.10Q99.67 17.79 99.67 17.33L99.67 17.33Q99.67 17.01 99.86 16.72Q100.06 16.44 100.35 16.27Q100.65 16.10 100.93 16.10L100.93 16.10ZM106.47 26.32L109.94 26.32L110.54 25.17L110.96 25.31L110.96 28.25L110.19 28L104.55 28L104.55 27.47L109.26 22.25L105.71 22.25L105.15 23.25L104.73 23.11L104.73 20.31L105.50 20.57L111.15 20.57L111.15 21.10L106.47 26.32ZM120.15 26.07L117.67 28.03Q117.11 28.14 116.33 28.14L116.33 28.14Q115.40 28.14 114.67 27.66Q113.93 27.17 113.52 26.35Q113.11 25.52 113.11 24.53L113.11 24.53Q113.11 23.45 113.76 22.50Q114.42 21.56 115.41 20.99Q116.40 20.43 117.32 20.43L117.32 20.43Q118.65 20.43 119.39 21.48Q120.12 22.53 120.12 24.25L120.12 24.25L114.94 24.25Q115.02 25.44 115.59 26.19Q116.16 26.95 117.14 26.95L117.14 26.95Q118.05 26.95 119.73 25.54L119.73 25.54L120.15 26.07ZM116.51 21.60Q115.00 21.60 114.93 23.67L114.93 23.67L118.20 23.67Q118.08 22.92 117.94 22.52Q117.81 22.12 117.48 21.86Q117.15 21.60 116.51 21.60L116.51 21.60ZM126.95 20.44Q127.41 20.44 127.76 20.69Q128.11 20.94 128.31 21.39L128.31 21.39L127.39 22.55L126.85 22.55Q126.80 22.20 126.65 22.06Q126.50 21.91 126.25 21.91L126.25 21.91Q125.94 21.91 125.60 22.07Q125.26 22.23 124.82 22.68L124.82 22.68L124.82 26.85L126.78 27.45L126.50 28.01L121.90 28.01L121.90 27.58L123.14 26.60L123.14 22.64L121.90 21.91L121.90 21.48L124.29 20.30L124.73 22.02L126.18 20.54Q126.48 20.43 126.95 20.43L126.95 20.43L126.95 20.44Z"></path></g><!----><!----><g data-v-423bf9ae="" id="ee2d82f6-e0ad-4d53-8638-a2e1676322c5" fill="white" transform="matrix(6.302521336710863,0,0,6.302521336710863,-1.134432988649678,110.05882763367615)"><path d="M7.43 3.78L4.16 9.42L4.16 13.02L3.46 13.02L3.46 9.42L0.18 3.78L1.01 3.78L3.81 8.69L6.61 3.78L7.43 3.78ZM19.40 3.64Q20.71 3.64 21.66 4.22Q22.62 4.80 23.14 5.87Q23.66 6.94 23.66 8.40L23.66 8.40Q23.66 9.86 23.14 10.93Q22.62 12.00 21.66 12.58Q20.71 13.16 19.40 13.16L19.40 13.16Q18.10 13.16 17.14 12.58Q16.18 12.00 15.67 10.93Q15.15 9.86 15.15 8.40L15.15 8.40Q15.15 6.94 15.67 5.87Q16.18 4.80 17.14 4.22Q18.10 3.64 19.40 3.64L19.40 3.64ZM19.40 4.28Q18.33 4.28 17.54 4.78Q16.74 5.28 16.32 6.21Q15.89 7.14 15.89 8.40L15.89 8.40Q15.89 9.66 16.32 10.59Q16.74 11.52 17.54 12.02Q18.33 12.52 19.40 12.52L19.40 12.52Q20.48 12.52 21.28 12.02Q22.08 11.52 22.51 10.59Q22.93 9.66 22.93 8.40L22.93 8.40Q22.93 7.14 22.51 6.21Q22.08 5.28 21.28 4.78Q20.48 4.28 19.40 4.28L19.40 4.28ZM40.00 3.78L40.00 9.65Q40.00 11.35 39.07 12.26Q38.15 13.16 36.44 13.16L36.44 13.16Q34.73 13.16 33.80 12.26Q32.87 11.35 32.87 9.65L32.87 9.65L32.87 3.78L33.57 3.78L33.57 9.51Q33.57 10.99 34.30 11.75Q35.03 12.52 36.44 12.52L36.44 12.52Q37.84 12.52 38.57 11.75Q39.30 10.99 39.30 9.51L39.30 9.51L39.30 3.78L40.00 3.78ZM56.74 13.02L55.92 13.02L53.27 9.02L53.23 9.02L50.50 9.02L50.50 13.02L49.80 13.02L49.80 3.78L53.23 3.78Q54.61 3.78 55.43 4.48Q56.25 5.18 56.25 6.40L56.25 6.40Q56.25 7.41 55.66 8.07Q55.08 8.74 54.05 8.93L54.05 8.93L56.74 13.02ZM50.50 4.42L50.50 8.36L53.21 8.36Q54.33 8.36 54.93 7.85Q55.52 7.35 55.52 6.40L55.52 6.40Q55.52 5.45 54.93 4.93Q54.33 4.42 53.21 4.42L53.21 4.42L50.50 4.42ZM83.06 3.78L83.06 4.42L79.69 4.42L79.69 13.02L78.99 13.02L78.99 4.42L75.61 4.42L75.61 3.78L83.06 3.78ZM98.77 13.02L97.94 13.02L95.30 9.02L95.26 9.02L92.53 9.02L92.53 13.02L91.83 13.02L91.83 3.78L95.26 3.78Q96.64 3.78 97.46 4.48Q98.28 5.18 98.28 6.40L98.28 6.40Q98.28 7.41 97.69 8.07Q97.10 8.74 96.08 8.93L96.08 8.93L98.77 13.02ZM92.53 4.42L92.53 8.36L95.24 8.36Q96.36 8.36 96.96 7.85Q97.55 7.35 97.55 6.40L97.55 6.40Q97.55 5.45 96.96 4.93Q96.36 4.42 95.24 4.42L95.24 4.42L92.53 4.42ZM114.07 13.02L112.91 10.12L108.49 10.12L107.34 13.02L106.60 13.02L110.29 3.78L111.12 3.78L114.81 13.02L114.07 13.02ZM108.75 9.48L112.66 9.48L111.05 5.45L110.71 4.47L110.70 4.47L110.36 5.42L108.75 9.48ZM126.45 3.78Q128.66 3.78 129.86 4.95Q131.05 6.12 131.05 8.33L131.05 8.33Q131.05 10.60 129.86 11.81Q128.66 13.02 126.45 13.02L126.45 13.02L123.54 13.02L123.54 3.78L126.45 3.78ZM126.50 12.38Q128.35 12.38 129.34 11.33Q130.33 10.29 130.33 8.33L130.33 8.33Q130.33 6.45 129.34 5.44Q128.35 4.42 126.50 4.42L126.50 4.42L124.24 4.42L124.24 12.38L126.50 12.38ZM141.09 3.78L141.09 13.02L140.39 13.02L140.39 3.78L141.09 3.78ZM158.10 3.78L158.10 13.02L157.23 13.02L152.33 5.77L151.65 4.54L151.63 4.54L151.68 5.70L151.68 13.02L151.00 13.02L151.00 3.78L151.89 3.78L156.77 11.02L157.47 12.26L157.44 11.10L157.44 3.78L158.10 3.78ZM171.57 8.50L175.36 8.50L175.36 13.02L174.80 13.02L174.78 11.41Q174.40 12.25 173.59 12.71Q172.79 13.16 171.60 13.16L171.60 13.16Q170.34 13.16 169.39 12.58Q168.45 12.00 167.94 10.92Q167.43 9.84 167.43 8.40L167.43 8.40Q167.43 6.96 167.95 5.88Q168.48 4.80 169.43 4.22Q170.38 3.64 171.64 3.64L171.64 3.64Q173.05 3.64 173.95 4.20Q174.85 4.76 175.29 5.91L175.29 5.91L174.65 6.24Q174.33 5.28 173.56 4.78Q172.80 4.28 171.64 4.28L171.64 4.28Q170.60 4.28 169.82 4.78Q169.04 5.28 168.60 6.21Q168.17 7.14 168.17 8.40L168.17 8.40Q168.17 10.32 169.08 11.42Q170.00 12.52 171.63 12.52L171.63 12.52Q172.63 12.52 173.33 12.12Q174.03 11.72 174.37 11.07Q174.71 10.42 174.71 9.67L174.71 9.67L174.71 9.16L171.57 9.16L171.57 8.50ZM202.52 3.78L198.97 13.02L198.14 13.02L194.57 3.78L195.33 3.78L198.06 10.93L198.55 12.36L199.04 10.93L201.78 3.78L202.52 3.78ZM212.00 3.78L212.00 13.02L211.30 13.02L211.30 3.78L212.00 3.78ZM224.77 3.64Q227.37 3.64 228.26 5.68L228.26 5.68L227.65 6.17Q227.30 5.18 226.61 4.73Q225.92 4.28 224.78 4.28L224.78 4.28Q223.97 4.28 223.37 4.54Q222.77 4.79 222.45 5.22Q222.14 5.66 222.14 6.20L222.14 6.20Q222.14 6.73 222.40 7.08Q222.67 7.43 223.31 7.68Q223.94 7.92 225.06 8.12L225.06 8.12Q226.87 8.43 227.63 9.02Q228.38 9.60 228.38 10.64L228.38 10.64Q228.38 11.38 227.95 11.96Q227.51 12.53 226.72 12.84Q225.93 13.16 224.91 13.16L224.91 13.16Q223.45 13.16 222.45 12.58Q221.45 12.00 221.09 10.95L221.09 10.95L221.70 10.47Q221.98 11.47 222.83 11.99Q223.68 12.52 224.92 12.52L224.92 12.52Q226.13 12.52 226.89 12.03Q227.65 11.54 227.65 10.68L227.65 10.68Q227.65 9.94 227.03 9.51Q226.41 9.07 224.87 8.81L224.87 8.81Q223.57 8.58 222.81 8.26Q222.05 7.94 221.72 7.46Q221.40 6.99 221.40 6.27L221.40 6.27Q221.40 5.56 221.81 4.96Q222.22 4.35 222.98 4.00Q223.75 3.64 224.77 3.64L224.77 3.64ZM244.59 3.78L244.59 9.65Q244.59 11.35 243.67 12.26Q242.75 13.16 241.04 13.16L241.04 13.16Q239.33 13.16 238.40 12.26Q237.47 11.35 237.47 9.65L237.47 9.65L237.47 3.78L238.17 3.78L238.17 9.51Q238.17 10.99 238.90 11.75Q239.62 12.52 241.04 12.52L241.04 12.52Q242.44 12.52 243.17 11.75Q243.89 10.99 243.89 9.51L243.89 9.51L243.89 3.78L244.59 3.78ZM260.43 13.02L259.27 10.12L254.84 10.12L253.69 13.02L252.95 13.02L256.65 3.78L257.47 3.78L261.17 13.02L260.43 13.02ZM255.11 9.48L259.01 9.48L257.40 5.45L257.07 4.47L257.05 4.47L256.72 5.42L255.11 9.48ZM270.59 12.38L276.14 12.38L276.14 13.02L269.89 13.02L269.89 3.78L270.59 3.78L270.59 12.38ZM285.60 3.78L285.60 13.02L284.90 13.02L284.90 3.78L285.60 3.78ZM295.48 12.38L301.80 12.38L301.80 13.02L294.66 13.02L294.66 12.40L300.75 4.42L294.78 4.42L294.78 3.78L301.57 3.78L301.57 4.40L295.48 12.38ZM317.10 13.02L315.94 10.12L311.51 10.12L310.37 13.02L309.62 13.02L313.32 3.78L314.15 3.78L317.84 13.02L317.10 13.02ZM311.78 9.48L315.69 9.48L314.08 5.45L313.74 4.47L313.73 4.47L313.39 5.42L311.78 9.48ZM331.53 3.78L331.53 4.42L328.16 4.42L328.16 13.02L327.46 13.02L327.46 4.42L324.09 4.42L324.09 3.78L331.53 3.78ZM341.00 3.78L341.00 13.02L340.30 13.02L340.30 3.78L341.00 3.78ZM354.58 3.64Q355.88 3.64 356.84 4.22Q357.80 4.80 358.32 5.87Q358.83 6.94 358.83 8.40L358.83 8.40Q358.83 9.86 358.32 10.93Q357.80 12.00 356.84 12.58Q355.88 13.16 354.58 13.16L354.58 13.16Q353.28 13.16 352.32 12.58Q351.36 12.00 350.84 10.93Q350.32 9.86 350.32 8.40L350.32 8.40Q350.32 6.94 350.84 5.87Q351.36 4.80 352.32 4.22Q353.28 3.64 354.58 3.64L354.58 3.64ZM354.58 4.28Q353.50 4.28 352.71 4.78Q351.92 5.28 351.49 6.21Q351.06 7.14 351.06 8.40L351.06 8.40Q351.06 9.66 351.49 10.59Q351.92 11.52 352.71 12.02Q353.50 12.52 354.58 12.52L354.58 12.52Q355.66 12.52 356.45 12.02Q357.25 11.52 357.68 10.59Q358.11 9.66 358.11 8.40L358.11 8.40Q358.11 7.14 357.68 6.21Q357.25 5.28 356.45 4.78Q355.66 4.28 354.58 4.28L354.58 4.28ZM375.26 3.78L375.26 13.02L374.39 13.02L369.49 5.77L368.80 4.54L368.79 4.54L368.83 5.70L368.83 13.02L368.16 13.02L368.16 3.78L369.04 3.78L373.93 11.02L374.63 12.26L374.60 11.10L374.60 3.78L375.26 3.78ZM402.85 4.42L397.25 4.42L397.25 7.99L401.69 7.99L401.69 8.65L397.25 8.65L397.25 13.02L396.55 13.02L396.55 3.78L402.85 3.78L402.85 4.42ZM418.67 13.02L417.84 13.02L415.20 9.02L415.16 9.02L412.43 9.02L412.43 13.02L411.73 13.02L411.73 3.78L415.16 3.78Q416.54 3.78 417.36 4.48Q418.18 5.18 418.18 6.40L418.18 6.40Q418.18 7.41 417.59 8.07Q417.00 8.74 415.98 8.93L415.98 8.93L418.67 13.02ZM412.43 4.42L412.43 8.36L415.14 8.36Q416.26 8.36 416.86 7.85Q417.45 7.35 417.45 6.40L417.45 6.40Q417.45 5.45 416.86 4.93Q416.26 4.42 415.14 4.42L415.14 4.42L412.43 4.42ZM428.39 3.78L428.39 13.02L427.69 13.02L427.69 3.78L428.39 3.78ZM439.00 12.38L444.84 12.38L444.84 13.02L438.30 13.02L438.30 3.78L444.61 3.78L444.61 4.42L439.00 4.42L439.00 7.99L443.44 7.99L443.44 8.65L439.00 8.65L439.00 12.38ZM460.96 3.78L460.96 13.02L460.10 13.02L455.20 5.77L454.51 4.54L454.50 4.54L454.54 5.70L454.54 13.02L453.87 13.02L453.87 3.78L454.75 3.78L459.63 11.02L460.33 12.26L460.31 11.10L460.31 3.78L460.96 3.78ZM473.79 3.78Q476 3.78 477.20 4.95Q478.39 6.12 478.39 8.33L478.39 8.33Q478.39 10.60 477.20 11.81Q476 13.02 473.79 13.02L473.79 13.02L470.88 13.02L470.88 3.78L473.79 3.78ZM473.84 12.38Q475.69 12.38 476.68 11.33Q477.67 10.29 477.67 8.33L477.67 8.33Q477.67 6.45 476.68 5.44Q475.69 4.42 473.84 4.42L473.84 4.42L471.58 4.42L471.58 12.38L473.84 12.38Z"></path></g></svg>